<svg width="196.7599853515625px" height="124.439990234375px" xmlns="http://www.w3.org/2000/svg" viewBox="151.62000732421876 12.780004882812499 196.7599853515625 124.439990234375" style="background: rgba(0, 0, 0, 0) none repeat scroll 0% 0%;" preserveAspectRatio="xMidYMid"><defs><filter id="editing-vr"><feFlood flood-color="#f00" flood-opacity="0.7" result="c1"></feFlood><feFlood flood-color="#00f" flood-opacity="0.7" result="c3"></feFlood><feComposite operator="in" in="c1" in2="SourceAlpha" result="text-c1"></feComposite><feComposite operator="in" in="c3" in2="SourceAlpha" result="text-c3"></feComposite><feOffset in="text-c1" dx="3" dy="-1" result="text1"></feOffset><feOffset in="text-c3" dx="-3" dy="1" result="text3"></feOffset><feBlend in="SourceGraphic" in2="text1" mode="multiply" result="text4"></feBlend><feBlend in="text4" in2="text3" mode="multiply"></feBlend></filter></defs><g filter="url(#editing-vr)"><g transform="translate(186.09569549560547, 97.4296875)"><path d="M26.05-29.57L26.05-29.57L26.05-29.57Q27.01-31.49 27.01-33.28L27.01-33.28L27.01-33.28Q27.01-35.07 26.82-36.06L26.82-36.06L26.82-36.06Q26.62-37.06 26.18-37.82L26.18-37.82L26.18-37.82Q25.22-39.49 23.30-39.49L23.30-39.49L23.30-39.49Q20.93-39.49 19.01-37.76L19.01-37.76L19.01-37.76Q16.96-35.97 16.96-33.15L16.96-33.15L16.96-33.15Q16.96-31.36 18.21-29.98L18.21-29.98L18.21-29.98Q19.46-28.61 21.38-27.33L21.38-27.33L21.38-27.33Q23.30-26.05 25.47-24.77L25.47-24.77L25.47-24.77Q27.65-23.49 29.57-21.95L29.57-21.95L29.57-21.95Q33.98-18.43 33.98-13.70L33.98-13.70L33.98-13.70Q33.98-10.50 32.29-7.78L32.29-7.78L32.29-7.78Q30.59-5.06 27.78-3.07L27.78-3.07L27.78-3.07Q21.63 1.28 13.50 1.28L13.50 1.28L13.50 1.28Q6.91 1.28 3.52-0.86L3.52-0.86L3.52-0.86Q0.13-3.01 0.13-6.27L0.13-6.27L0.13-6.27Q0.13-12.10 4.67-13.57L4.67-13.57L4.67-13.57Q5.95-14.02 7.90-14.02L7.90-14.02L7.90-14.02Q9.86-14.02 12.10-13.18L12.10-13.18L12.10-13.18Q11.07-10.56 11.07-8.19L11.07-8.19L11.07-8.19Q11.07-3.07 14.72-3.07L14.72-3.07L14.72-3.07Q17.09-3.07 19.04-4.80L19.04-4.80L19.04-4.80Q20.99-6.53 20.99-8.48L20.99-8.48L20.99-8.48Q20.99-10.43 19.74-11.84L19.74-11.84L19.74-11.84Q18.50-13.25 16.64-14.37L16.64-14.37L16.64-14.37Q14.78-15.49 12.64-16.58L12.64-16.58L12.64-16.58Q10.50-17.66 8.64-19.20L8.64-19.20L8.64-19.20Q4.29-22.72 4.29-28.35L4.29-28.35L4.29-28.35Q4.29-32 6.08-34.85L6.08-34.85L6.08-34.85Q7.87-37.70 10.75-39.62L10.75-39.62L10.75-39.62Q16.51-43.52 23.58-43.52L23.58-43.52L23.58-43.52Q30.66-43.52 34.08-41.41L34.08-41.41L34.08-41.41Q37.50-39.30 37.50-35.71L37.50-35.71L37.50-35.71Q37.50-32.58 35.07-30.59L35.07-30.59L35.07-30.59Q32.96-28.93 30.40-28.93L30.40-28.93L30.40-28.93Q27.84-28.93 26.05-29.57ZM39.81-15.62L39.81-15.62L39.81-15.62Q39.81-27.71 46.08-35.33L46.08-35.33L46.08-35.33Q52.74-43.58 64.32-43.58L64.32-43.58L64.32-43.58Q72.70-43.58 76.93-39.52L76.93-39.52L76.93-39.52Q81.15-35.46 81.15-26.88L81.15-26.88L81.15-26.88Q81.15-13.82 74.50-6.21L74.50-6.21L74.50-6.21Q67.90 1.28 56.83 1.28L56.83 1.28L56.83 1.28Q48.19 1.28 44-3.04L44-3.04L44-3.04Q39.81-7.36 39.81-15.62ZM56.64-28.86L56.64-28.86L56.64-28.86Q53.76-17.34 53.76-8.26L53.76-8.26L53.76-8.26Q53.76-6.08 54.50-4.67L54.50-4.67L54.50-4.67Q55.23-3.26 57.18-3.26L57.18-3.26L57.18-3.26Q59.14-3.26 60.35-4.19L60.35-4.19L60.35-4.19Q61.57-5.12 62.53-7.23L62.53-7.23L62.53-7.23Q64.06-10.69 65.50-18.02L65.50-18.02L65.50-18.02Q66.94-25.34 67.07-28.38L67.07-28.38L67.07-28.38Q67.20-31.42 67.20-33.73L67.20-33.73L67.20-33.73Q67.20-36.03 66.50-37.50L66.50-37.50L66.50-37.50Q65.79-38.98 63.90-38.98L63.90-38.98L63.90-38.98Q62.02-38.98 60.74-37.82L60.74-37.82L60.74-37.82Q58.37-35.65 56.64-28.86ZM90.88 0L83.84 0L91.52-42.24L105.28-42.24L115.26-13.18L120.58-42.24L127.68-42.18L119.87 0L105.22 0L96.00-27.97L90.88 0Z" fill="#444"></path></g></g><style>text {
  font-size: 64px;
  font-family: Arial Black;
  dominant-baseline: central;
  text-anchor: middle;
}</style></svg>